<svg width="24" height="8" viewBox="0 0 24 8" fill="none" xmlns="http://www.w3.org/2000/svg">
<path d="M9.07267 4.92299L5.57994 0.907402L6.45136 0L14.5753 3.17591C16.9296 2.39717 19.2768 1.68614 21.5608 0.907402C22.2354 0.711024 23.8447 0.778741 23.9783 1.3611C24.1821 2.00441 22.903 3.04725 22.2284 3.23685C21.2867 3.49418 20.352 3.81921 19.34 4.14425C15.6505 5.3767 7.24548 7.96347 7.24548 7.96347C6.10701 8.15985 1.33525 7.50977 2.00287 7.31339C2.75483 7.05607 6.85194 5.69496 9.07267 4.92299ZM4.23063 6.08772L0.674652 4.46929L0 4.98394L1.74988 6.98835L4.23063 6.08772Z" fill="#28377A"/>
</svg>
