<svg width="24" height="26" viewBox="0 0 24 26" fill="none" xmlns="http://www.w3.org/2000/svg">
<path d="M16.0688 7.23647L15.3753 5.76172L7.09961 10.6369L7.79309 12.1116L16.0688 7.23647ZM7.10046 15.3625L15.3762 20.2377L16.0696 18.7621L7.79394 13.887L7.10046 15.3625Z" fill="#28377A"/>
<path d="M19.034 9.7503C21.7749 9.7503 23.9993 7.567 23.9993 4.87515C23.9993 2.1833 21.7748 0 19.034 0C16.2922 0 14.0686 2.1833 14.0686 4.87515C14.0686 7.567 16.2914 9.7503 19.034 9.7503ZM19.034 2.43762C20.4044 2.43762 21.5167 3.52881 21.5167 4.87524C21.5167 6.22168 20.4045 7.31287 19.034 7.31287C17.6643 7.31287 16.5512 6.22168 16.5512 4.87524C16.5512 3.52881 17.6643 2.43762 19.034 2.43762ZM4.96538 8.12448C2.22286 8.12448 0 10.3078 0 12.9996C0 15.6915 2.22286 17.8748 4.96538 17.8748C7.7063 17.8748 9.93077 15.6915 9.93077 12.9996C9.93077 10.3078 7.7063 8.12448 4.96538 8.12448ZM4.96538 15.4372C3.59327 15.4372 2.48264 14.346 2.48264 12.9995C2.48264 11.6531 3.59327 10.5619 4.96538 10.5619C6.33579 10.5619 7.44812 11.6531 7.44812 12.9995C7.44812 14.3468 6.33664 15.4372 4.96538 15.4372ZM19.034 16.2497C16.2922 16.2497 14.0686 18.433 14.0686 21.1248C14.0686 23.8167 16.2923 26 19.034 26C21.7749 26 23.9993 23.8167 23.9993 21.1248C23.9993 18.433 21.7748 16.2497 19.034 16.2497ZM19.034 23.5625C17.6643 23.5625 16.5512 22.4704 16.5512 21.1248C16.5512 19.7801 17.6643 18.6872 19.034 18.6872C20.4044 18.6872 21.5167 19.7801 21.5167 21.1248C21.5166 22.4704 20.4044 23.5625 19.034 23.5625Z" fill="#000F4A"/>
</svg>
