<svg width="41" height="37" viewBox="0 0 41 37" fill="none" xmlns="http://www.w3.org/2000/svg">
<path d="M38.4987 4.91492C27.7127 25.417 13.8681 25.3989 3.08203 4.91492" stroke="#000F4A" stroke-width="1.6" stroke-miterlimit="128" stroke-linecap="round" stroke-linejoin="round"/>
<path d="M1.54297 8.70936V27.9828C1.54297 30.0246 2.35417 31.988 3.79632 33.4335C5.23846 34.879 7.19738 35.6921 9.2344 35.6921H32.3087C34.3457 35.6921 36.3047 34.879 37.7468 33.4335C39.1889 31.988 40.0001 30.0246 40.0001 27.9828V8.70936C40.0001 6.66759 39.1889 4.70411 37.7468 3.2586C36.3047 1.8131 34.3457 1 32.3087 1H9.2344C7.19738 1 5.23846 1.8131 3.79632 3.2586C2.35417 4.70411 1.54297 6.66759 1.54297 8.70936Z" stroke="#000F4A" stroke-width="1.6" stroke-miterlimit="128" stroke-linecap="round" stroke-linejoin="round"/>
</svg>
