<svg width="16" height="16" viewBox="0 0 16 16" fill="none" xmlns="http://www.w3.org/2000/svg">
<path fill-rule="evenodd" clip-rule="evenodd" d="M14.0264 3.18312V12.8169C14.0264 13.4029 13.581 13.8951 12.995 13.8951V14.9686C12.995 15.55 12.5028 16 11.9215 16H10.8479C10.2666 16 9.7697 15.5546 9.7697 14.9686V13.8951H5.51304V14.9686C5.51304 15.55 5.0208 16 4.4395 16H3.36127C2.77996 16 2.28772 15.5546 2.28772 14.9686V13.8951C1.70642 13.8951 1.20949 13.4029 1.20949 12.8169V3.18312C1.20949 1.43451 2.64401 0 4.43481 0H10.8432C12.5919 0 14.0264 1.43451 14.0264 3.18312ZM0.539115 4.25667H1.07823V7.48198H0.539115C0.267214 7.48198 0 7.21477 0 6.94287V4.79109C0 4.48169 0.267214 4.25667 0.539115 4.25667ZM14.6967 4.25667H14.2045V7.48198H14.6967C15.0108 7.48198 15.2359 7.21477 15.2359 6.94287V4.79109C15.2359 4.48169 15.0108 4.25667 14.6967 4.25667ZM12.995 3.18312H2.28772V9.59156H12.995V3.18312ZM5.51304 2.15177L9.81658 2.10958L9.32435 1.07823H5.9162L5.51304 2.15177ZM2.73308 10.9323H4.03164C4.29886 10.9323 4.52388 11.1573 4.52388 11.4246V12.2778C4.52388 12.545 4.29886 12.7278 4.03164 12.7278H2.73308C2.46587 12.7278 2.24084 12.5497 2.24084 12.2778V11.4246C2.24084 11.1573 2.46587 10.9323 2.73308 10.9323ZM11.2464 10.9323H12.545C12.8122 10.9323 13.0372 11.1573 13.0372 11.4246V12.2778C13.0372 12.545 12.8122 12.7278 12.545 12.7278H11.2464C10.9792 12.7278 10.7542 12.5497 10.7542 12.2778V11.4246C10.7542 11.1573 10.9792 10.9323 11.2464 10.9323Z" fill="#28377A"/>
<path fill-rule="evenodd" clip-rule="evenodd" d="M1.07354 7.48191V4.25659H0.539115C0.267214 4.25659 0 4.48161 0 4.79102V6.94279C0 7.21001 0.267214 7.48191 0.539115 7.48191H1.07354Z" fill="#28377A"/>
<path fill-rule="evenodd" clip-rule="evenodd" d="M14.2046 4.25664V7.48196H14.6968C15.0109 7.48196 15.2359 7.21474 15.2359 6.94284V4.79107C15.2359 4.47698 15.0109 4.25195 14.6968 4.25195H14.2046V4.25664Z" fill="#28377A"/>
</svg>
