<svg width="12" height="12" viewBox="0 0 12 12" fill="none" xmlns="http://www.w3.org/2000/svg">
<g clip-path="url(#clip0_151_320)">
<path d="M9.74993 5.99994C9.74993 6.34994 9.59993 6.64994 9.34993 6.84994L3.79993 11.7999C3.39993 12.0999 2.79993 12.0499 2.49993 11.6499C2.19993 11.2499 2.19993 10.6999 2.59993 10.3999L7.49993 6.09994C7.54993 6.04994 7.54993 5.99994 7.49993 5.89994L2.59993 1.59994C2.19993 1.24994 2.14993 0.699941 2.49993 0.299941C2.84993 -0.100059 3.39993 -0.15006 3.79993 0.199941C3.79993 0.199941 3.79993 0.199941 3.84993 0.249941L9.39993 5.14994C9.59993 5.34994 9.74993 5.69994 9.74993 5.99994Z" fill="#28377A"/>
</g>
<defs>
<clipPath id="clip0_151_320">
<rect width="12" height="12" fill="white" transform="matrix(0 -1 1 0 0 12)"/>
</clipPath>
</defs>
</svg>
