<svg width="12" height="12" viewBox="0 0 12 12" fill="none" xmlns="http://www.w3.org/2000/svg">
<g clip-path="url(#clip0_151_318)">
<path d="M2.25007 6.00006C2.25007 5.65006 2.40007 5.35006 2.65007 5.15006L8.20007 0.200059C8.60007 -0.0999407 9.20007 -0.0499407 9.50007 0.350059C9.80007 0.750059 9.80007 1.30006 9.40007 1.60006L4.50007 5.90006C4.45007 5.95006 4.45007 6.00006 4.50007 6.10006L9.40007 10.4001C9.80007 10.7501 9.85007 11.3001 9.50007 11.7001C9.15007 12.1001 8.60007 12.1501 8.20007 11.8001C8.20007 11.8001 8.20007 11.8001 8.15007 11.7501L2.60007 6.85006C2.40007 6.65006 2.25007 6.30006 2.25007 6.00006Z" fill="#28377A"/>
</g>
<defs>
<clipPath id="clip0_151_318">
<rect width="12" height="12" fill="white" transform="matrix(0 1 -1 0 12 0)"/>
</clipPath>
</defs>
</svg>
