<svg width="40" height="32" viewBox="0 0 40 32" fill="none" xmlns="http://www.w3.org/2000/svg">
<path d="M39.2891 3.41635C38.7709 2.8037 38.0451 2.42948 37.2453 2.36268L9.07692 0.0106627C8.27708 -0.0561339 7.49942 0.192537 6.88669 0.710738C6.27646 1.22691 5.90279 1.94901 5.83388 2.74487L5.26717 8.06172H3.00429C1.34773 8.06172 0 9.40945 0 11.066V28.6989C0 30.3555 1.34773 31.7032 3.00429 31.7032H31.2708C32.9274 31.7032 34.2752 30.3555 34.2752 28.6989V25.8385L35.2782 25.9223C35.3628 25.9293 35.447 25.9328 35.5304 25.9328C37.0748 25.9328 38.3913 24.7446 38.5221 23.1784L39.9894 5.60666C40.0561 4.80689 39.8074 4.02908 39.2891 3.41635ZM3.00429 9.62422H31.2708C32.0658 9.62422 32.7127 10.271 32.7127 11.066V12.6727H1.56249V11.066C1.56249 10.271 2.20929 9.62422 3.00429 9.62422ZM1.56249 14.2352H32.7127V17.4765H1.56249V14.2352ZM31.2708 30.1407H3.00429C2.20929 30.1407 1.56249 29.4939 1.56249 28.6989V19.039H32.7127V28.6989C32.7127 29.4939 32.0658 30.1407 31.2708 30.1407ZM38.4323 5.47658L36.965 23.0483C36.8988 23.8406 36.2003 24.4316 35.4082 24.3652L34.2752 24.2706V11.066C34.2752 9.40945 32.9274 8.06172 31.2708 8.06172H6.83857L7.38849 2.90237C7.38911 2.89643 7.38966 2.89057 7.39013 2.88456C7.4563 2.0923 8.15442 1.50136 8.94692 1.56777L37.1154 3.91979C37.4992 3.95182 37.8476 4.13143 38.0963 4.42549C38.3449 4.71955 38.4643 5.09275 38.4323 5.47658Z" fill="#AB1F21"/>
<path d="M29.4427 21.3618H21.9238C21.4923 21.3618 21.1426 21.7116 21.1426 22.1431V27.0485C21.1426 27.4799 21.4923 27.8297 21.9238 27.8297H29.4427C29.8742 27.8297 30.224 27.4799 30.224 27.0485V22.1431C30.224 21.7116 29.8742 21.3618 29.4427 21.3618ZM28.6615 26.2672H22.7051V22.9243H28.6615V26.2672Z" fill="#AB1F21"/>
</svg>
