<svg version="1.2" xmlns="http://www.w3.org/2000/svg" viewBox="0 0 14 11" width="14" height="11">
	<title>Vector-svg</title>
	<style>
		.s0 { fill: #000f4a } 
	</style>
	<path id="Layer" fill-rule="evenodd" class="s0" d="m3 6.8q0-0.5 0.3-0.8c0.4 0.6 0.9 1.1 1.2 1.5l0.2 0.2 0.2-0.2c0.2-0.3 0.6-0.8 1.1-1.4q0.1 0.3 0.1 0.7c0 0.7-0.7 1.4-1.5 1.4-0.9 0-1.6-0.7-1.6-1.4zm1.1 4.1l-2.3-0.3 0.4-1.9 1-0.7q0.4 0.4 1.2 0.5zm-4.1-0.7l0.5-3.9 2.1 0.3c0 0.1 0 0.1 0 0.1 0 0.4 0.2 0.8 0.4 1.1l-1 0.7-0.4 2zm3.1-4.6q-0.2 0.2-0.4 0.5l-2.1-0.2-0.5-4.2 1.4 0.5q0 0.2 0 0.3c0 0.7 0.8 2 1.6 3.1zm5.8 0.2l-2.5 0.3c0-0.1-0.1-0.3-0.2-0.4 0.5-0.7 1-1.4 1.4-2.1l1.5-0.2zm0.5-4.6l-0.2 2.1-1.6 0.2q0.3-0.5 0.3-1c0-0.2 0-0.4-0.1-0.6zm0.5-0.2l4.1 1.4-0.2 1.9-0.3 1.9-4-0.4 0.2-2.4zm0 9.1l-0.5-3.9h0.1l3.9 0.5 0.6 4.2c-5.8-1.1-1.7-0.3-4.1-0.8zm-2.3-7.5c0 1.4-2.8 4.6-3 4.8 0 0-2.9-3.4-2.9-4.8 0-1.5 1.3-2.6 2.9-2.6 1.7 0 3 1.2 3 2.6zm-3-1.4c-0.8 0-1.4 0.6-1.4 1.3 0 0.7 0.6 1.2 1.4 1.2 0.9 0 1.5-0.5 1.5-1.2 0-0.7-0.6-1.3-1.5-1.3zm0 9.8l0.3-2.5c0.9-0.2 1.6-0.9 1.6-1.7q0-0.1 0-0.2l2.4-0.3 0.2 1.8 0.2 2.1-3.1 0.6z"/>
</svg>