<svg width="14" height="11" viewBox="0 0 14 11" fill="none" xmlns="http://www.w3.org/2000/svg">
<path fill-rule="evenodd" clip-rule="evenodd" d="M3.01993 6.78357C3.01993 6.47523 3.09789 6.20274 3.25381 5.99478C3.72567 6.57562 4.15651 7.12777 4.46835 7.46838L4.6653 7.67275L4.86225 7.46838C5.13716 7.16004 5.53107 6.6796 5.9619 6.09876C6.08089 6.30313 6.11782 6.54335 6.11782 6.78357C6.11782 7.53651 5.41208 8.15678 4.55041 8.15678C3.72567 8.15678 3.01993 7.54009 3.01993 6.78357ZM4.07855 10.9319L1.80539 10.5554L2.15827 8.70535L3.17995 7.95241C3.49179 8.26076 3.8857 8.43286 4.39449 8.46871L4.07855 10.9319ZM0 10.2471L0.508793 6.40711L2.62603 6.6796C2.62603 6.71545 2.62603 6.71545 2.62603 6.78357C2.62603 7.16004 2.78195 7.53651 3.01993 7.84485L1.96131 8.60137L1.60844 10.5196L0 10.2471ZM3.06096 5.69003C2.90504 5.86212 2.78605 6.03422 2.70809 6.23859L0.590856 5.9661L0.0369285 1.8178L1.48945 2.33051C1.48945 2.43448 1.48945 2.50261 1.48945 2.57073C1.48945 3.32366 2.23623 4.59289 3.06096 5.69003ZM8.90387 5.86213L6.39273 6.20632C6.3558 6.07008 6.31477 5.93383 6.19578 5.82986C6.70457 5.10919 7.21747 4.35626 7.52931 3.70372L9.09672 3.53162L8.90387 5.86213ZM9.3347 1.26923L9.13775 3.32725L7.60727 3.53162C7.76319 3.15515 7.84115 2.84681 7.84115 2.57073C7.84115 2.36636 7.84115 2.12614 7.76319 1.95404L9.3347 1.26923ZM9.88453 1.02901L14 2.39863L13.7251 4.35267L13.4502 6.23859L9.40856 5.82627L9.60551 3.45991L9.88453 1.02901ZM9.88453 10.1108L9.45369 6.23859H9.49062L13.4132 6.68318L14 10.9319C8.19812 9.76662 12.3136 10.5913 9.88453 10.1108ZM4.6653 1.23338C3.84467 1.23338 3.21278 1.78194 3.21278 2.46675C3.21278 3.18742 3.84056 3.73598 4.6653 3.73598C5.49004 3.73598 6.11782 3.18742 6.11782 2.46675C6.11782 1.78194 5.49004 1.23338 4.6653 1.23338ZM4.6653 0C3.01993 0 1.6864 1.1294 1.6864 2.57073C1.6864 4.00847 4.6653 7.36799 4.6653 7.36799C4.78429 7.19589 7.60727 3.97621 7.60727 2.57073C7.60727 1.16525 6.31477 0 4.6653 0ZM4.62837 11H4.58734L4.89918 8.46512C5.80188 8.32888 6.50762 7.60821 6.50762 6.78357C6.50762 6.71545 6.50762 6.6796 6.50762 6.64733L8.9408 6.30313L9.13775 8.11734L9.37163 10.2076L6.19578 10.7562L4.62837 11Z" fill="white"/>
</svg>
