<svg width="20" height="20" viewBox="0 0 20 20" fill="none" xmlns="http://www.w3.org/2000/svg">
<circle cx="10" cy="10" r="9.5" fill="white" stroke="#28377A"/>
<circle cx="10" cy="10" r="1" fill="#28377A"/>
<path d="M5.06054 4.35356C4.86528 4.1583 4.5487 4.1583 4.35344 4.35356C4.15818 4.54882 4.15818 4.8654 4.35344 5.06067L5.06054 4.35356ZM10.0103 9.30331L5.06054 4.35356L4.35344 5.06067L9.30318 10.0104L10.0103 9.30331Z" fill="#28377A"/>
<path d="M10.8111 14.959C10.8826 15.2258 11.1568 15.3841 11.4235 15.3126C11.6902 15.2411 11.8485 14.967 11.7771 14.7002L10.8111 14.959ZM9.51704 10.1294L10.8111 14.959L11.7771 14.7002L10.483 9.87059L9.51704 10.1294Z" fill="#28377A"/>
</svg>
