<svg width="14" height="12" viewBox="0 0 14 12" fill="none" xmlns="http://www.w3.org/2000/svg">
<path d="M13.497 1.09498C12.8276 0.568981 11.7385 0.569195 11.0697 1.09498L1.5585 8.56882C1.54577 8.57882 1.40234 8.69599 1.36518 8.76163L0.0480617 11.0868C-0.0454824 11.2519 3.88589e-05 11.4451 0.162706 11.5728C0.268984 11.6563 0.411051 11.7006 0.555574 11.7006C0.631746 11.7006 0.708464 11.6882 0.781134 11.6628L3.74026 10.6278C3.82348 10.5987 3.97282 10.486 3.98564 10.476L13.497 3.00238C13.8213 2.74756 14 2.40884 14 2.04857C14 1.68834 13.8213 1.34955 13.497 1.09498ZM12.7118 2.38519L3.20041 9.85902C3.19882 9.86031 3.19791 9.86181 3.19636 9.86284L1.65068 10.4035L2.33878 9.18901C2.34014 9.18773 2.34201 9.18705 2.34364 9.1858L11.8549 1.712C12.084 1.53194 12.4833 1.53215 12.7119 1.71218C12.8264 1.80187 12.8895 1.9214 12.8895 2.04857C12.8895 2.17575 12.8263 2.29525 12.7118 2.38519Z" fill="#7C1D26"/>
</svg>
