<svg width="44" height="45" viewBox="0 0 44 45" fill="none" xmlns="http://www.w3.org/2000/svg">
<path d="M30.4499 35.2439H30.4498L29.2553 35.2438L27.04 39.3392L27.04 39.3393C26.9426 39.5189 26.7546 39.6313 26.55 39.6311L30.4499 35.2439ZM30.4499 35.2439C31.2946 35.2437 31.9817 34.5566 31.9819 33.7119V33.7118C31.9817 33.3028 31.8224 32.9179 31.533 32.6285C31.3484 32.4439 31.1245 32.3119 30.8801 32.2408L31.1015 31.8316L32.3997 31.8314C33.2446 31.8314 33.9318 31.1443 33.9316 30.2995C33.9317 29.5707 33.4202 28.9609 32.7378 28.8065L34.5391 25.4768C35.1486 25.4879 35.7375 25.4942 36.2995 25.4942L36.2995 25.3942L36.2995 25.4942C37.9779 25.494 39.5528 25.2883 40.7343 24.9119L40.7039 24.8166L40.7343 24.9119C41.7335 24.5933 42.3494 24.1832 42.7157 23.7528C43.0834 23.3209 43.1938 22.8753 43.1938 22.4997C43.1939 22.124 43.0835 21.6786 42.7158 21.2467C42.3494 20.8164 41.7335 20.4062 40.7342 20.0876L40.7038 20.1829L40.7341 20.0876C39.553 19.7111 37.9779 19.5052 36.2995 19.5054C35.7375 19.5054 35.1487 19.5114 34.5393 19.5227L32.7378 16.1928C33.4201 16.0385 33.9316 15.4287 33.9318 14.7L33.9318 14.6999C33.9316 13.8552 33.2447 13.1679 32.3999 13.1681C32.3999 13.1681 32.3998 13.1681 32.3998 13.1681L31.1015 13.1681L30.8799 12.7586C31.1244 12.6874 31.3484 12.5554 31.533 12.3708C31.8222 12.0816 31.9817 11.6965 31.9818 11.2876C31.9819 10.4429 31.2946 9.75555 30.4499 9.75571C30.4498 9.75571 30.4498 9.75571 30.4498 9.75571L29.2555 9.75571L30.4499 35.2439ZM24.3544 38.989C24.3026 39.3223 24.5672 39.6313 24.9047 39.6311C24.9047 39.6311 24.9048 39.6311 24.9048 39.6311L26.5499 39.6311L26.5499 5.36854M24.3544 38.989L24.4532 39.0043M24.3544 38.989L24.3543 38.989L24.4532 39.0043M24.3544 38.989L25.9682 28.5607C26.0151 28.2565 26.2997 28.0482 26.6039 28.0953L26.604 28.0953C26.9079 28.1424 27.1162 28.4269 27.0691 28.7309L25.5545 38.517L26.218 38.5171L33.2885 25.4472C31.4907 25.3962 29.5564 25.3069 27.616 25.1973L27.3818 26.71L27.283 26.6947L27.3818 26.71C27.3396 26.983 27.0952 27.1886 26.818 27.1815C26.4862 27.1729 26.23 26.8684 26.2809 26.5394L26.2809 26.5394L26.4989 25.1321C22.7011 24.9031 18.9754 24.6089 16.3025 24.3819L14.872 27.6005C14.7827 27.802 14.5829 27.9316 14.3628 27.9316H12.4131C12.1088 27.9316 11.8559 27.6788 11.8561 27.3744M24.4532 39.0043C24.4109 39.2771 24.6286 39.5313 24.9047 39.5311L24.4532 39.0043ZM11.8561 27.3744L11.9561 27.3745L11.8561 27.3745V27.3744ZM11.8561 27.3744L11.8561 17.6248C11.8561 17.3173 12.1054 17.0681 12.4129 17.0679L12.413 17.0679L14.363 17.0679C14.5831 17.0679 14.7825 17.1976 14.8719 17.3987L14.872 17.3987L16.3025 20.6177C18.9754 20.3907 22.7013 20.0963 26.4988 19.8674L24.3544 6.01067C24.3026 5.67731 24.5673 5.36833 24.9048 5.36854M24.9048 5.36854L24.9047 5.46853V5.36854H24.9048ZM24.9048 5.36854L26.5499 5.36854M26.5499 5.36854L26.55 5.46853L26.55 5.36854L26.5499 5.36854ZM26.599 19.8614L26.6144 19.9606C26.581 19.9626 26.5476 19.9646 26.5141 19.9666L26.599 19.8614ZM32.3998 14.2822L32.3999 14.2822C32.6269 14.2822 32.8178 14.4731 32.8178 14.7001C32.8178 14.9305 32.6303 15.1181 32.3999 15.1181L32.1564 15.1181L31.7042 14.282L32.3998 14.2822ZM30.4499 10.8698L30.4499 10.8698C30.6801 10.8697 30.8678 11.0573 30.8678 11.2878C30.8678 11.5182 30.6803 11.7057 30.4499 11.7057L30.4499 11.7057L30.3103 11.7056L29.8581 10.8698L30.4499 10.8698ZM36.2997 20.6194L36.2997 20.5201L36.2997 20.6194C37.8499 20.6192 39.3431 20.8136 40.3958 21.1491L40.3958 21.1491C40.792 21.2754 41.2193 21.4499 41.5455 21.6793C41.8733 21.9098 42.0798 22.1814 42.0798 22.4998C42.0798 22.8182 41.8733 23.0897 41.5454 23.3203C41.2192 23.5497 40.7919 23.7242 40.3958 23.8505C39.3431 24.1861 37.85 24.3801 36.2995 24.3801C28.5504 24.3801 15.6689 23.2193 12.97 22.9678L12.97 22.0318C15.6688 21.7802 28.5499 20.6194 36.2997 20.6194ZM32.3998 29.8816H32.3999C32.63 29.8814 32.8177 30.0692 32.8178 30.2996C32.8178 30.5266 32.6269 30.7174 32.3999 30.7174L31.704 30.7174L32.1562 29.8814L32.3998 29.8816ZM26.218 6.48248L33.2886 19.5523C31.4907 19.6034 29.5564 19.6927 27.6158 19.8021L25.5545 6.48235L26.218 6.48248ZM12.97 18.1819L14.001 18.182L15.1285 20.7189C14.1896 20.8009 13.4486 20.8685 12.97 20.9129L12.97 18.1819ZM12.9702 26.8176L12.9702 24.0866C13.4485 24.131 14.1896 24.1987 15.1285 24.2807L14.001 26.8176L12.9702 26.8176ZM30.4499 33.2939C30.6803 33.2939 30.8678 33.4814 30.8678 33.7118C30.8678 33.9423 30.6803 34.1298 30.4499 34.1298L29.858 34.1298L30.3101 33.2939H30.4499Z" fill="#AB1F21" stroke="#AB1F21" stroke-width="0.2"/>
<path d="M22.7039 38.488L22.7038 38.488L17.1886 38.488L17.1886 38.488C16.9013 38.4883 16.6555 38.7147 16.6332 39.0016L16.6332 39.0016C16.6085 39.3216 16.8673 39.6022 17.1886 39.6022L22.7038 39.6022C23.0116 39.6022 23.2609 39.3529 23.2609 39.0451C23.2609 38.7377 23.0114 38.4883 22.7039 38.488Z" fill="#AB1F21" stroke="#AB1F21" stroke-width="0.2"/>
<path d="M23.2617 36.2884C23.2619 35.9807 23.0124 35.7312 22.7048 35.7314M23.2617 36.2884L22.7048 35.7314M23.2617 36.2884C23.2619 36.596 23.0124 36.8454 22.7048 36.8452L23.2617 36.2884ZM22.7048 35.7314L22.7048 35.7314L22.7048 35.8314L22.7048 35.7314Z" fill="#AB1F21" stroke="#AB1F21" stroke-width="0.2"/>
<path d="M23.3947 34.087C23.7024 34.087 23.952 33.8376 23.9518 33.5299L20.5262 33.4943L20.4266 33.4865C20.4265 33.4865 20.4265 33.4866 20.4265 33.4866C20.4017 33.8065 20.6605 34.087 20.9818 34.087L23.3947 34.087Z" fill="#AB1F21" stroke="#AB1F21" stroke-width="0.2"/>
<path d="M23.0902 6.12629L23.0902 6.12642C23.09 6.43396 22.8407 6.68321 22.5332 6.68342L22.5331 6.68342L17.0179 6.68342L17.0178 6.68342C16.7137 6.68321 16.4609 6.43049 16.4608 6.12638L23.0902 6.12629ZM23.0902 6.12629C23.09 5.81878 22.8406 5.56929 22.5331 5.56929L22.5331 5.56929M23.0902 6.12629L22.5331 5.56929M22.5331 5.56929L17.0178 5.56945L22.5331 5.56929Z" fill="#AB1F21" stroke="#AB1F21" stroke-width="0.2"/>
<path d="M19.086 8.32712C18.7984 8.32692 18.5529 8.55371 18.5306 8.84048L18.5306 8.84053L19.0859 9.34091L19.0859 9.44091L19.0859 9.44091L22.5328 9.44108L22.5328 9.44108C22.8406 9.44108 23.0901 9.19163 23.0899 8.88395C23.0899 8.57626 22.8406 8.32692 22.5329 8.32712L19.086 8.32712ZM19.086 8.32712L19.0859 8.42712L19.0859 8.32712L19.086 8.32712Z" fill="#AB1F21" stroke="#AB1F21" stroke-width="0.2"/>
<path d="M20.2521 11.6421L20.2521 11.6422C20.2523 11.9464 20.5049 12.199 20.8091 12.1992H20.8092L23.2221 12.1992L23.2222 12.1992C23.5297 12.199 23.7789 11.9498 23.7792 11.6422L23.7792 11.6421C23.7789 11.3346 23.5297 11.0853 23.2222 11.0851L23.2221 11.0851L20.8092 11.0851L20.8091 11.0851C20.5016 11.0853 20.2523 11.3346 20.2521 11.6421Z" fill="#AB1F21" stroke="#AB1F21" stroke-width="0.2"/>
</svg>
