<svg width="16" height="15" viewBox="0 0 16 15" fill="none" xmlns="http://www.w3.org/2000/svg">
<path fill-rule="evenodd" clip-rule="evenodd" d="M0.0172973 12.6162V15H10.8701V12.1517L0.0172973 12.6162ZM11.5336 0.592793C11.4672 5.28461 11.5336 10.3034 11.4672 15C12.6568 15 13.9127 15 15.107 15C15.107 11.1612 15.107 7.33195 15.107 3.49793C14.2444 2.30839 12.9885 1.11411 11.5336 0.592793ZM0.0172973 3.17092C0.0836463 4.02398 -0.0443125 4.95287 0.0172973 5.81067C2.60017 3.75859 5.97449 2.50743 10.8701 3.17092C10.8701 2.24204 10.8701 1.32263 10.8701 0.393746C7.69482 -0.468791 4.1878 -0.0706971 0.0172973 3.17092ZM0.0172973 6.40781C0.0172973 7.19926 0.0172973 8.05705 0.0172973 8.8485C3.06461 7.13765 6.63798 6.5405 10.8701 7.19926C10.8701 6.20876 10.8701 5.28461 10.8701 4.29412C7.42943 3.63063 3.78971 4.22303 0.0172973 6.40781ZM0.0172973 9.37929C0.0172973 10.2371 0.0172973 11.0949 0.0172973 12.019C3.52905 11.0901 7.16403 10.8958 10.8701 11.0901C10.8701 10.2371 10.8701 9.04281 10.8701 8.18501C6.96972 7.79166 3.39636 8.2561 0.0172973 9.37929Z" fill="#28377A"/>
</svg>
