<svg width="16" height="19" viewBox="0 0 16 19" fill="none" xmlns="http://www.w3.org/2000/svg">
<circle cx="8" cy="9.21429" r="7.5" fill="white" stroke="#000F4A"/>
<path d="M7.904 4.256C8.11867 4.256 8.282 4.326 8.394 4.466C8.51533 4.606 8.576 4.788 8.576 5.012C8.576 5.22667 8.48733 5.40867 8.31 5.558C8.13267 5.698 7.93667 5.768 7.722 5.768C7.51667 5.768 7.35333 5.698 7.232 5.558C7.12 5.418 7.064 5.24533 7.064 5.04C7.064 4.82533 7.15267 4.64333 7.33 4.494C7.50733 4.33533 7.69867 4.256 7.904 4.256ZM9.444 14H6.616V13.608H6.84C7.092 13.608 7.25067 13.566 7.316 13.482C7.39067 13.398 7.428 13.2627 7.428 13.076V8.876C7.428 8.69867 7.36733 8.57267 7.246 8.498C7.134 8.414 6.924 8.372 6.616 8.372V7.98C6.80267 7.98 7.08267 7.91467 7.456 7.784C7.83867 7.644 8.128 7.51333 8.324 7.392L8.576 7.336V12.992C8.576 13.1413 8.58067 13.2487 8.59 13.314C8.60867 13.3793 8.66467 13.4447 8.758 13.51C8.85133 13.5753 8.996 13.608 9.192 13.608H9.444V14Z" fill="#000F4A"/>
</svg>
