<svg width="27" height="27" viewBox="0 0 27 27" fill="none" xmlns="http://www.w3.org/2000/svg">
<path d="M20.3234 5.40015C19.4898 5.40015 18.8154 6.07454 18.8154 6.90816C18.8154 7.74178 19.4898 8.41617 20.3234 8.41617C21.1571 8.41617 21.8315 7.74178 21.8315 6.90816C21.8408 6.07454 21.1571 5.40015 20.3234 5.40015Z" fill="white"/>
<path d="M13.6064 7.32983C10.1033 7.32983 7.25586 10.1773 7.25586 13.6804C7.25586 17.1834 10.1033 20.0309 13.6064 20.0309C17.1095 20.0309 19.9569 17.1834 19.9569 13.6804C19.9569 10.1773 17.1095 7.32983 13.6064 7.32983ZM13.6064 17.7454C11.3678 17.7454 9.5413 15.919 9.5413 13.6804C9.5413 11.4417 11.3678 9.61527 13.6064 9.61527C15.845 9.61527 17.6715 11.4417 17.6715 13.6804C17.6715 15.9283 15.845 17.7454 13.6064 17.7454Z" fill="white"/>
<path d="M18.6464 26.5687H8.35258C4.08143 26.5687 0.606445 23.0937 0.606445 18.8226V8.53813C0.606445 4.26698 4.08143 0.791992 8.35258 0.791992H18.6464C22.9176 0.791992 26.3925 4.26698 26.3925 8.53813V18.832C26.3925 23.0937 22.9176 26.5687 18.6464 26.5687ZM8.35258 3.21793C5.42085 3.21793 3.03238 5.6064 3.03238 8.53813V18.832C3.03238 21.7637 5.42085 24.1522 8.35258 24.1522H18.6464C21.5781 24.1522 23.9666 21.7637 23.9666 18.832V8.53813C23.9666 5.6064 21.5781 3.21793 18.6464 3.21793H8.35258Z" fill="white"/>
</svg>
