<svg width="23" height="24" viewBox="0 0 23 24" fill="none" xmlns="http://www.w3.org/2000/svg">
<path d="M11.4122 2.77441C14.4593 2.77441 14.8207 2.78578 16.0237 2.84071C17.2677 2.89755 18.5487 3.17981 19.455 4.08249C20.3699 4.9937 20.6447 6.25727 20.7018 7.5C20.757 8.6982 20.7684 9.05814 20.7684 12.093C20.7684 15.1278 20.757 15.4877 20.7018 16.6859C20.6457 17.9183 20.3556 19.2064 19.455 20.1034C18.5401 21.0147 17.2724 21.2884 16.0237 21.3452C14.8207 21.4002 14.4593 21.4115 11.4122 21.4115C8.36517 21.4115 8.00379 21.4002 6.80075 21.3452C5.57298 21.2893 4.26247 20.9938 3.36946 20.1034C2.45934 19.197 2.17974 17.9211 2.12268 16.6859C2.06752 15.4877 2.05611 15.1278 2.05611 12.093C2.05611 9.05814 2.06752 8.6982 2.12268 7.5C2.17879 6.27242 2.4717 4.97665 3.36946 4.08249C4.28244 3.17318 5.55586 2.89755 6.80075 2.84071C8.00379 2.78578 8.36517 2.77441 11.4122 2.77441ZM11.4122 0.726562C8.31287 0.726562 7.9239 0.739823 6.70659 0.794761C4.94245 0.875273 3.19067 1.36403 1.91535 2.63422C0.635281 3.90916 0.14931 5.65011 0.0684735 7.40622C0.0133143 8.61864 0 9.00604 0 12.093C0 15.1799 0.0133143 15.5673 0.0684735 16.7797C0.14931 18.5349 0.641939 20.2844 1.91535 21.5517C3.19448 22.8257 4.9453 23.3107 6.70659 23.3912C7.9239 23.4461 8.31287 23.4594 11.4122 23.4594C14.5116 23.4594 14.9006 23.4461 16.1179 23.3912C17.8811 23.3107 19.6348 22.821 20.9091 21.5517C22.1902 20.2758 22.6752 18.5358 22.756 16.7797C22.8112 15.5673 22.8245 15.1799 22.8245 12.093C22.8245 9.00604 22.8112 8.61864 22.756 7.40622C22.6752 5.64917 22.1835 3.90347 20.9091 2.63422C19.6319 1.36213 17.8763 0.874326 16.1179 0.794761C14.9006 0.739823 14.5116 0.726562 11.4122 0.726562Z" fill="#000F4A"/>
<path d="M11.4129 6.25586C8.1766 6.25586 5.55273 8.86919 5.55273 12.0925C5.55273 15.3158 8.1766 17.9292 11.4129 17.9292C14.6492 17.9292 17.2731 15.3158 17.2731 12.0925C17.2731 8.86919 14.6492 6.25586 11.4129 6.25586ZM11.4129 15.8813C9.31212 15.8813 7.60884 14.1849 7.60884 12.0925C7.60884 10.0001 9.31212 8.30371 11.4129 8.30371C13.5137 8.30371 15.217 10.0001 15.217 12.0925C15.217 14.1849 13.5137 15.8813 11.4129 15.8813Z" fill="#000F4A"/>
<path d="M17.5042 7.38907C18.2606 7.38907 18.8737 6.7784 18.8737 6.0251C18.8737 5.2718 18.2606 4.66113 17.5042 4.66113C16.7479 4.66113 16.1348 5.2718 16.1348 6.0251C16.1348 6.7784 16.7479 7.38907 17.5042 7.38907Z" fill="#000F4A"/>
</svg>
