<svg width="17" height="16" viewBox="0 0 17 16" fill="none" xmlns="http://www.w3.org/2000/svg">
<path d="M8.49996 14.6204C12.6421 14.6204 15.9999 11.4642 15.9999 7.57078C15.9999 3.67738 12.6421 0.521149 8.49996 0.521149C4.35784 0.521149 1 3.67738 1 7.57078C1 11.4642 4.35784 14.6204 8.49996 14.6204Z" stroke="#000F4A"/>
<path d="M1 6.45708C2.13056 5.95529 2.96674 5.88539 3.50851 6.24735C4.32121 6.79035 4.42309 9.00327 6.27154 7.94564C8.11998 6.88802 5.47999 6.45708 6.0531 4.92502C6.62621 3.39295 8.50307 4.58304 8.68967 2.90487C8.81402 1.78607 7.39027 1.35798 4.41833 1.62061" stroke="#000F4A"/>
<path d="M13 1.93106C10.8571 3.68945 10.1087 4.7513 10.7547 5.11654C11.7238 5.66444 12.1349 4.89307 13.3175 5.11654C14.5 5.34005 14.2439 6.84667 13.622 6.84667C13 6.84667 9.77872 6.46109 9.94098 8.22815C10.1032 9.99517 12.0408 10.2568 12.0408 11.244C12.0408 11.9022 11.6121 12.9095 10.7547 14.2659" stroke="#000F4A" stroke-linecap="round"/>
<path d="M1.78906 10.7172C2.13087 10.577 2.38781 10.4743 2.55987 10.409C4.00252 9.86113 5.07299 9.73198 5.7712 10.0216C7.00588 10.5337 6.53121 11.568 6.91794 11.949C7.30464 12.33 8.27034 12.2192 8.27034 12.944C8.27034 13.4273 8.09765 13.9732 7.75228 14.5817" stroke="#000F4A" stroke-linecap="round"/>
</svg>
