<svg width="27" height="27" viewBox="0 0 27 27" fill="none" xmlns="http://www.w3.org/2000/svg">
<path d="M1.1549 9.21485H6.4751V26.2901H1.1549V9.21485ZM3.81503 0.72876C5.51974 0.72876 6.8966 2.10564 6.8966 3.80099C6.8966 5.49633 5.51974 6.88258 3.81503 6.88258C2.11032 6.88258 0.733398 5.5057 0.733398 3.80099C0.733398 2.10564 2.11032 0.72876 3.81503 0.72876Z" fill="white"/>
<path d="M9.80957 9.21504H14.905V11.5473H14.9705C15.6824 10.2079 17.4152 8.78418 20.0004 8.78418C25.3768 8.78418 26.3696 12.3154 26.3696 16.9237V26.2903H21.0682V17.9821C21.0682 15.9964 21.0307 13.4487 18.305 13.4487C15.5419 13.4487 15.1204 15.603 15.1204 17.8323V26.2809H9.81895V9.21504H9.80957Z" fill="white"/>
</svg>
