<svg width="29" height="40" viewBox="0 0 29 40" fill="none" xmlns="http://www.w3.org/2000/svg">
<path fill-rule="evenodd" clip-rule="evenodd" d="M16.1965 39.1262C19.9028 35.0334 29.0002 24.0533 29.0002 14.9215C29.0002 7.15405 22.5759 0.86084 14.6466 0.86084C6.71728 0.86084 0.292969 7.15405 0.292969 14.9215C0.292969 24.0533 9.39034 35.0334 13.0967 39.1262C13.9278 40.0283 15.3654 40.0283 16.1965 39.1262ZM20.3768 14.9214C20.3768 18.0325 17.8023 20.5545 14.6264 20.5545C11.4505 20.5545 8.87598 18.0325 8.87598 14.9214C8.87598 11.8103 11.4505 9.28833 14.6264 9.28833C17.8023 9.28833 20.3768 11.8103 20.3768 14.9214Z" fill="white"/>
</svg>
