<svg width="12" height="14" viewBox="0 0 12 14" fill="none" xmlns="http://www.w3.org/2000/svg">
<path d="M4.40518 0.876362H7.5982V1.71348H8.47021V0H3.53418V1.71348H4.40518V0.876362Z" fill="#000F4A"/>
<path d="M11.8689 12.4865H0.133789V13.8297H11.8689V12.4865Z" fill="#000F4A"/>
<path d="M1.42701 11.0678H2.81102V2.59491H1.42701C1.04854 2.59491 0.685577 2.74618 0.417961 3.01544C0.150345 3.2847 0 3.6499 0 4.0307L0 9.63599C0.00105893 10.0161 0.151871 10.3803 0.419373 10.6486C0.686874 10.917 1.04923 11.0678 1.42701 11.0678Z" fill="#000F4A"/>
<path d="M3.68262 11.0718H8.51265V2.59491H3.68262V11.0718Z" fill="#000F4A"/>
<path d="M10.5758 2.59491H9.38379V11.0678H10.5758C10.9531 11.067 11.3146 10.9159 11.5815 10.6476C11.8483 10.3793 11.9987 10.0156 11.9998 9.63599V4.0307C11.9998 3.65042 11.8499 3.28568 11.5829 3.01651C11.3159 2.74733 10.9537 2.59571 10.5758 2.59491Z" fill="#000F4A"/>
</svg>
