<svg width="41" height="37" viewBox="0 0 41 37" fill="none" xmlns="http://www.w3.org/2000/svg">
<path d="M38.4984 4.95703C27.7123 25.4591 13.8678 25.4411 3.08173 4.95703" stroke="white" stroke-width="1.6" stroke-miterlimit="128" stroke-linecap="round" stroke-linejoin="round"/>
<path d="M1.54297 8.75233V28.0257C1.54297 30.0675 2.35417 32.031 3.79632 33.4765C5.23846 34.922 7.19738 35.7351 9.2344 35.7351H32.3087C34.3457 35.7351 36.3047 34.922 37.7468 33.4765C39.1889 32.031 40.0001 30.0675 40.0001 28.0257V8.75233C40.0001 6.71056 39.1889 4.74708 37.7468 3.30157C36.3047 1.85607 34.3457 1.04297 32.3087 1.04297H9.2344C7.19738 1.04297 5.23846 1.85607 3.79632 3.30157C2.35417 4.74708 1.54297 6.71056 1.54297 8.75233Z" stroke="white" stroke-width="1.6" stroke-miterlimit="128" stroke-linecap="round" stroke-linejoin="round"/>
</svg>
