<svg width="14" height="13" viewBox="0 0 14 13" fill="none" xmlns="http://www.w3.org/2000/svg">
<path d="M1.60768 5.09085e-06C1.18055 0.00215584 0.771652 0.174343 0.470384 0.478915C0.169116 0.783487 -5.35138e-06 1.19566 1.27e-10 1.62532C0.00085709 2.00286 0.132348 2.36832 0.371896 2.65896C0.611445 2.9496 0.944108 3.14729 1.31277 3.21809V9.78004C0.943584 9.85094 0.610517 10.0491 0.370907 10.3404C0.131296 10.6317 0.000134491 10.9979 1.27e-10 11.3759C0.000329852 11.8068 0.170708 12.2199 0.473687 12.5244C0.776667 12.8289 1.18745 13 1.61577 13C2.04386 12.9997 2.45433 12.8285 2.75704 12.524C3.05975 12.2195 3.22996 11.8066 3.23029 11.3759C3.23023 10.9981 3.09928 10.6321 2.85998 10.3408C2.62068 10.0495 2.28798 9.85126 1.91907 9.78004V6.80416H6.69576V9.78004C6.32657 9.85094 5.99351 10.0491 5.7539 10.3404C5.51429 10.6317 5.38312 10.9979 5.38299 11.3759C5.38315 11.5894 5.42513 11.8008 5.50652 11.998C5.58791 12.1951 5.70712 12.3742 5.85734 12.5251C6.00756 12.6759 6.18584 12.7954 6.38201 12.8769C6.57818 12.9584 6.78838 13.0002 7.00062 13C7.42872 12.9997 7.83919 12.8285 8.1419 12.524C8.44461 12.2195 8.61482 11.8066 8.61515 11.3759C8.61501 10.9979 8.48385 10.6317 8.24424 10.3404C8.00463 10.0491 7.67156 9.85094 7.30237 9.78004V6.80416H12.6872V3.21809C13.0559 3.14729 13.3886 2.9496 13.6281 2.65896C13.8677 2.36832 13.9991 2.00286 14 1.62532C14 1.19447 13.8299 0.781259 13.5272 0.47649C13.2244 0.171721 12.8138 0.000336891 12.3855 5.09085e-06C12.3834 1.0744e-06 12.3813 1.0744e-06 12.3793 5.09085e-06C11.952 0.0019909 11.543 0.174105 11.2416 0.478695C10.9402 0.783285 10.7709 1.19556 10.771 1.62532C10.7718 2.00286 10.9033 2.36832 11.1428 2.65896C11.3824 2.9496 11.7151 3.14729 12.0837 3.21809V6.19396H7.30237V3.21809C7.67104 3.14729 8.0037 2.9496 8.24325 2.65896C8.4828 2.36832 8.61429 2.00286 8.61515 1.62532C8.61515 1.19447 8.44508 0.781259 8.14234 0.47649C7.83959 0.171721 7.42894 0.000336891 7.00062 5.09085e-06C6.99855 1.0744e-06 6.99647 1.0744e-06 6.9944 5.09085e-06C6.56663 0.00116493 6.15677 0.172915 5.85469 0.477594C5.55262 0.782274 5.38299 1.19502 5.38299 1.62532C5.38385 2.00286 5.51534 2.36832 5.75488 2.65896C5.99443 2.9496 6.3271 3.14729 6.69576 3.21809V6.19396H1.91907V3.21809C2.28745 3.14697 2.61975 2.94914 2.85899 2.65853C3.09823 2.36792 3.2295 2.00263 3.23029 1.62532C3.23029 1.19447 3.06023 0.781259 2.75748 0.47649C2.45474 0.171721 2.04408 0.000336891 1.61577 5.09085e-06C1.61307 -1.69695e-06 1.61038 -1.69695e-06 1.60768 5.09085e-06Z" fill="#000F4A"/>
</svg>
