<svg width="12" height="14" viewBox="0 0 12 14" fill="none" xmlns="http://www.w3.org/2000/svg">
<path d="M11.9333 2.28583L11.2012 0.85084C11.0479 0.550582 10.6804 0.43129 10.38 0.584525C10.0797 0.737733 9.96052 1.10539 10.1137 1.40567L10.6125 2.38327C9.81417 2.64833 9.23657 3.4016 9.23657 4.28774V5.78471C9.23657 6.03754 9.44153 6.24253 9.69439 6.24253H10.7792V7.77613C10.7792 8.45691 10.2253 9.01073 9.54459 9.01073H8.80146V1.15094C8.80143 0.530722 8.29689 0.026123 7.67668 0.026123H2.27847C1.49699 0.026123 0.861194 0.661892 0.861194 1.44338V11.7426C0.367764 11.8616 0 12.3065 0 12.8359V13.5161C0 13.7689 0.204967 13.9739 0.457798 13.9739H9.20489C9.45772 13.9739 9.66271 13.7689 9.66271 13.5161V12.8359C9.66271 12.3065 9.29489 11.8616 8.80146 11.7426V10.2315H9.54459C10.8985 10.2315 12 9.13 12 7.77605V2.56323C12 2.46677 11.9771 2.37169 11.9333 2.28583ZM6.86591 4.58394H2.79678C2.58606 4.58394 2.41526 4.41314 2.41526 4.20242V1.9783C2.41526 1.76758 2.58606 1.59677 2.79678 1.59677H6.86591C7.07662 1.59677 7.24743 1.76758 7.24743 1.9783V4.20245C7.24743 4.41314 7.07662 4.58394 6.86591 4.58394Z" fill="#000F4A"/>
</svg>
