<svg width="22" height="29" viewBox="0 0 22 29" fill="none" xmlns="http://www.w3.org/2000/svg">
<path fill-rule="evenodd" clip-rule="evenodd" d="M9.18311 18.913C9.15521 18.9984 9.13662 19.0649 9.11802 19.1408C8.07645 23.3183 7.95556 24.2392 6.88609 26.176C6.37461 27.097 5.79802 27.9705 5.16563 28.8059C5.09124 28.9009 5.02614 29.0243 4.88664 28.9958C4.72854 28.9579 4.71925 28.8154 4.70065 28.692C4.53325 27.4198 4.43095 26.1476 4.47745 24.8753C4.53325 23.2043 4.73785 22.6347 6.83959 13.5962C6.86749 13.4538 6.83959 13.3398 6.79309 13.2164C6.2909 11.8303 6.1886 10.4156 6.62569 8.99149C7.57426 5.90586 11.0059 5.6685 11.6011 8.21296C11.973 9.789 10.9966 11.8492 10.2433 14.8874C9.62021 17.4034 12.5217 19.1883 14.9954 17.3464C17.2739 15.6564 18.1667 11.6024 17.9993 8.73514C17.6645 3.01012 11.5174 1.77587 7.61147 3.61775C3.1383 5.72547 2.12461 11.3935 4.14266 13.976C4.40305 14.3083 4.59835 14.5076 4.51466 14.8399C4.38446 15.3621 4.27286 15.8843 4.13336 16.397C4.03107 16.7768 3.71487 16.9192 3.33359 16.7578C2.58961 16.4539 1.96653 15.9697 1.46434 15.3336C-0.246808 13.1689 -0.739701 8.87755 1.52943 5.24126C4.04036 1.21571 8.71814 -0.407804 12.9867 0.0858959C18.083 0.674538 21.3007 4.23488 21.9052 8.26043C22.1842 10.1023 21.9796 14.6311 19.4593 17.8306C16.5578 21.5144 11.8428 21.7517 9.6667 19.4921C9.48071 19.3307 9.34121 19.1218 9.18311 18.913Z" fill="white"/>
</svg>
