<svg width="75" height="25" viewBox="0 0 75 25" fill="none" xmlns="http://www.w3.org/2000/svg">
<path d="M28.3521 15.3844L17.4373 2.83563L20.1605 0L45.5478 9.92471C52.9049 7.49114 60.2399 5.2692 67.3774 2.83563C69.4857 2.22195 74.5148 2.43356 74.9321 4.25345C75.5689 6.26378 71.572 9.52264 69.4637 10.1152C66.5209 10.9193 63.6 11.935 60.4376 12.9508C48.9079 16.8022 22.6421 24.8858 22.6421 24.8858C19.0844 25.4995 4.17265 23.468 6.25898 22.8543C8.60884 22.0502 21.4123 17.7968 28.3521 15.3844ZM13.2207 19.0241L2.10829 13.9665L0 15.5748L5.46837 21.8386L13.2207 19.0241Z" fill="white"/>
</svg>
