<svg width="15" height="20" viewBox="0 0 15 20" fill="none" xmlns="http://www.w3.org/2000/svg">
<path fill-rule="evenodd" clip-rule="evenodd" d="M7.301 9.24385L0 12.8312L2.27343 20H12.2211L14.5455 12.8312L7.301 9.24385ZM2.27343 6.94607H4.49032H7.19355H12.2777V8.23564H12.1702H2.38089H2.27343V6.94607ZM3.94741 1.23095C3.94741 0.556858 4.49032 0 5.08412 0C5.62138 0 6.05684 0.392732 6.22084 0.896835C6.7072 0.896835 7.137 1.28957 7.137 1.73505C7.137 1.90504 7.08045 2.01641 7.02955 2.12778C7.3519 2.12778 7.57246 2.35053 7.57246 2.68464C7.57246 2.966 7.35756 3.2415 7.02955 3.2415C6.75809 3.2415 6.49229 2.96014 6.49229 2.68464C6.49229 2.63189 6.49229 2.63189 6.49229 2.63189C6.43574 2.63189 6.32829 2.68464 6.22084 2.68464C5.94939 2.68464 5.67793 2.51465 5.51958 2.29191C5.41213 2.35053 5.24813 2.40328 5.08978 2.40328C4.49032 2.40914 3.94741 1.84642 3.94741 1.23095ZM4.49032 5.76788H4.86357C4.92012 5.76788 4.92012 5.76788 4.97102 5.76788H6.15863L6.37353 3.64009H8.16061L8.37551 5.76788H9.61968C9.67623 5.76788 9.67623 5.76788 9.72713 5.76788H10.106V6.16061C10.106 6.16061 10.106 6.21336 10.106 6.27198V6.55334H4.49032V6.27198C4.49032 6.21923 4.49032 6.16061 4.49032 6.10199V5.76788ZM2.38089 8.23564V11.0903L7.301 8.62251L12.1646 11.0903V8.23564H2.38089Z" fill="#28377A"/>
</svg>
