<svg width="15" height="14" viewBox="0 0 15 14" fill="none" xmlns="http://www.w3.org/2000/svg">
<path d="M7.50004 13.2195C11.0899 13.2195 14.0001 10.4841 14.0001 7.10975C14.0001 3.73543 11.0899 1 7.50004 1C3.91017 1 1 3.73543 1 7.10975C1 10.4841 3.91017 13.2195 7.50004 13.2195Z" stroke="#AB1F21" stroke-width="0.7"/>
<path d="M1 6.14524C1.97983 5.71034 2.70452 5.64976 3.17407 5.96347C3.87841 6.43407 3.96672 8.35196 5.56872 7.43534C7.17072 6.51872 4.8827 6.14524 5.3794 4.81743C5.8761 3.48963 7.50274 4.52105 7.66446 3.06662C7.77223 2.09698 6.53829 1.72597 3.96259 1.95358" stroke="#AB1F21" stroke-width="0.7"/>
<path d="M11.3989 2.22266C9.54167 3.74661 8.89303 4.66689 9.45294 4.98344C10.2928 5.45829 10.6491 4.78976 11.674 4.98344C12.6989 5.17715 12.477 6.4829 11.9379 6.4829C11.3989 6.4829 8.60706 6.14872 8.74769 7.68019C8.88828 9.21163 10.5675 9.43837 10.5675 10.294C10.5675 10.8644 10.196 11.7374 9.45294 12.913" stroke="#AB1F21" stroke-width="0.7" stroke-linecap="round"/>
<path d="M1.68384 9.83655C1.98007 9.71509 2.20276 9.62607 2.35188 9.56943C3.60219 9.09464 4.52994 8.98271 5.13506 9.2337C6.20513 9.67755 5.79374 10.5739 6.12892 10.9041C6.46406 11.2344 7.30101 11.1383 7.30101 11.7665C7.30101 12.1853 7.15134 12.6584 6.85202 13.1858" stroke="#AB1F21" stroke-width="0.7" stroke-linecap="round"/>
</svg>
