<svg width="65" height="60" viewBox="0 0 65 60" fill="none" xmlns="http://www.w3.org/2000/svg">
<path d="M60.1351 9.05249C43.4593 40.7499 22.0547 40.722 5.37891 9.05249" stroke="#AB1F21" stroke-width="5" stroke-miterlimit="128" stroke-linecap="round" stroke-linejoin="round"/>
<path d="M3 14.9191V44.7169C3 47.8736 4.25417 50.9093 6.48381 53.1441C8.71345 55.379 11.742 56.6361 14.8914 56.6361H50.5656C53.715 56.6361 56.7436 55.379 58.9732 53.1441C61.2029 50.9093 62.457 47.8736 62.457 44.7169V14.9191C62.457 11.7624 61.2029 8.72677 58.9732 6.49193C56.7436 4.2571 53.715 3 50.5656 3H14.8914C11.742 3 8.71345 4.2571 6.48381 6.49193C4.25417 8.72677 3 11.7624 3 14.9191Z" stroke="#AB1F21" stroke-width="5" stroke-miterlimit="128" stroke-linecap="round" stroke-linejoin="round"/>
</svg>
