<svg width="22" height="30" viewBox="0 0 22 30" fill="none" xmlns="http://www.w3.org/2000/svg">
<path fill-rule="evenodd" clip-rule="evenodd" d="M11.0428 13.8658L0 19.2468L3.43857 30H18.4844L22 19.2468L11.0428 13.8658ZM3.43857 10.4191H6.7916H10.8802H18.57V12.3535H18.4075H3.60109H3.43857V10.4191ZM5.97045 1.84642C5.97045 0.835287 6.7916 0 7.68974 0C8.50233 0 9.16096 0.589097 9.40902 1.34525C10.1446 1.34525 10.7947 1.93435 10.7947 2.60258C10.7947 2.85756 10.7092 3.02462 10.6322 3.19168C11.1198 3.19168 11.4533 3.52579 11.4533 4.02696C11.4533 4.449 11.1283 4.86225 10.6322 4.86225C10.2216 4.86225 9.8196 4.44021 9.8196 4.02696C9.8196 3.94783 9.8196 3.94783 9.8196 3.94783C9.73406 3.94783 9.57154 4.02696 9.40902 4.02696C8.99845 4.02696 8.58787 3.77198 8.34837 3.43787C8.18585 3.52579 7.93779 3.60492 7.69829 3.60492C6.7916 3.61372 5.97045 2.76964 5.97045 1.84642ZM6.7916 8.65182H7.35614C7.44168 8.65182 7.44168 8.65182 7.51866 8.65182H9.31493L9.63997 5.46014H12.3429L12.668 8.65182H14.5498C14.6353 8.65182 14.6353 8.65182 14.7123 8.65182H15.2854V9.24092C15.2854 9.24092 15.2854 9.32005 15.2854 9.40797V9.83001H6.7916V9.40797C6.7916 9.32884 6.7916 9.24091 6.7916 9.15299V8.65182ZM3.60109 12.3535V16.6354L11.0428 12.9338L18.3989 16.6354V12.3535H3.60109Z" fill="white"/>
</svg>
