<svg width="44" height="34" viewBox="0 0 44 34" fill="none" xmlns="http://www.w3.org/2000/svg">
<path d="M19.5571 22.75H6.125C5.64113 22.75 5.25 22.358 5.25 21.875C5.25 21.392 5.64113 21 6.125 21H19.5571C20.041 21 20.4321 21.392 20.4321 21.875C20.4321 22.358 20.0401 22.75 19.5571 22.75Z" fill="#AB1F21"/>
<path d="M19.5571 12.25H6.125C5.64113 12.25 5.25 11.858 5.25 11.375C5.25 10.892 5.64113 10.5 6.125 10.5H19.5571C20.041 10.5 20.4321 10.892 20.4321 11.375C20.4321 11.858 20.0401 12.25 19.5571 12.25Z" fill="#AB1F21"/>
<path d="M18.375 17.5H0.875C0.391125 17.5 0 17.108 0 16.625C0 16.142 0.391125 15.75 0.875 15.75H18.375C18.8589 15.75 19.25 16.142 19.25 16.625C19.25 17.108 18.8589 17.5 18.375 17.5Z" fill="#AB1F21"/>
<path d="M27.125 20.0392C25.3864 20.0392 23.625 18.8667 23.625 16.6249C23.625 14.3832 25.3864 13.2107 27.125 13.2107C28.8636 13.2107 30.625 14.3832 30.625 16.6249C30.625 18.8667 28.8636 20.0392 27.125 20.0392ZM27.125 14.9607C26.3174 14.9607 25.375 15.3964 25.375 16.6249C25.375 17.8534 26.3174 18.2892 27.125 18.2892C27.9326 18.2892 28.875 17.8534 28.875 16.6249C28.875 15.3964 27.9326 14.9607 27.125 14.9607Z" fill="#AB1F21"/>
<path d="M28.9807 15.6442C28.7567 15.6442 28.5327 15.5584 28.3621 15.3878C28.0199 15.0457 28.0199 14.4927 28.3621 14.1506L33.3119 9.20069C33.6541 8.85856 34.2071 8.85856 34.5492 9.20069C34.8913 9.54281 34.8913 10.0958 34.5492 10.4379L29.5993 15.3878C29.4287 15.5584 29.2047 15.6442 28.9807 15.6442Z" fill="#AB1F21"/>
<path d="M24.0315 20.5941C23.8075 20.5941 23.5835 20.5083 23.4128 20.3377C23.0707 19.9964 23.0707 19.4426 23.4128 19.1004L24.6501 17.8623C24.9922 17.5202 25.5452 17.5202 25.8873 17.8623C26.2295 18.2036 26.2295 18.7574 25.8873 19.0996L24.6501 20.3377C24.4795 20.5083 24.2555 20.5941 24.0315 20.5941Z" fill="#AB1F21"/>
<path d="M27.125 33.25C26.6411 33.25 26.25 32.858 26.25 32.375V29.75C26.25 29.267 26.6411 28.875 27.125 28.875C27.6089 28.875 28 29.267 28 29.75V32.375C28 32.858 27.6089 33.25 27.125 33.25Z" fill="#AB1F21"/>
<path d="M38.2623 28.637C38.0383 28.637 37.8143 28.5513 37.6437 28.3806L35.7878 26.5239C35.4457 26.1817 35.4457 25.6279 35.7878 25.2866C36.13 24.9445 36.683 24.9445 37.0251 25.2866L38.881 27.1434C39.2231 27.4855 39.2231 28.0394 38.881 28.3806C38.7095 28.5513 38.4855 28.637 38.2623 28.637Z" fill="#AB1F21"/>
<path d="M36.4045 8.21976C36.1805 8.21976 35.9565 8.13401 35.7859 7.96339C35.4438 7.62214 35.4438 7.06826 35.7859 6.72614L37.6418 4.86939C37.9839 4.52726 38.5369 4.52726 38.879 4.86939C39.2211 5.21064 39.2211 5.76451 38.879 6.10664L37.0231 7.96339C36.8525 8.13401 36.6285 8.21976 36.4045 8.21976Z" fill="#AB1F21"/>
<path d="M27.125 4.375C26.6411 4.375 26.25 3.983 26.25 3.5V0.875C26.25 0.392 26.6411 0 27.125 0C27.6089 0 28 0.392 28 0.875V3.5C28 3.983 27.6089 4.375 27.125 4.375Z" fill="#AB1F21"/>
<path d="M42.875 17.5H40.25C39.7661 17.5 39.375 17.108 39.375 16.625C39.375 16.142 39.7661 15.75 40.25 15.75H42.875C43.3589 15.75 43.75 16.142 43.75 16.625C43.75 17.108 43.3589 17.5 42.875 17.5Z" fill="#AB1F21"/>
<path d="M20.8154 7H11.375C10.8911 7 10.5 6.608 10.5 6.125C10.5 5.642 10.8911 5.25 11.375 5.25H20.8154C21.2992 5.25 21.6904 5.642 21.6904 6.125C21.6904 6.608 21.2992 7 20.8154 7Z" fill="#AB1F21"/>
<path d="M20.8154 28H11.375C10.8911 28 10.5 27.608 10.5 27.125C10.5 26.642 10.8911 26.25 11.375 26.25H20.8154C21.2992 26.25 21.6904 26.642 21.6904 27.125C21.6904 27.608 21.2992 28 20.8154 28Z" fill="#AB1F21"/>
<path d="M27.0716 33.2334C24.5069 33.2334 21.9161 32.6428 19.5098 31.4029C19.0802 31.1815 18.9113 30.6539 19.1327 30.2243C19.3541 29.7947 19.8826 29.6258 20.3113 29.8472C27.1748 33.3839 35.7244 31.0144 39.7757 24.4528C43.8383 17.8719 42.1382 9.1578 35.9056 4.61392C31.3914 1.32392 25.2699 0.847923 20.3113 3.40205C19.8826 3.62342 19.3541 3.45542 19.1327 3.02492C18.9113 2.5953 19.0793 2.06767 19.5098 1.8463C25.0512 -1.0097 31.8902 -0.478578 36.9363 3.19905C43.9031 8.27755 45.8044 18.0172 41.2641 25.3715C38.1569 30.4063 32.6803 33.2334 27.0716 33.2334Z" fill="#AB1F21"/>
</svg>
