<svg width="21" height="24" viewBox="0 0 21 24" fill="none" xmlns="http://www.w3.org/2000/svg">
<path d="M21 10.1819C18.8536 10.1819 16.8638 9.52635 15.2403 8.41272V16.4487C15.2403 20.4623 11.8215 23.7266 7.62013 23.7266C5.99656 23.7266 4.4904 23.2378 3.25315 22.4078C1.28842 21.0901 0 18.9107 0 16.4487C0 12.435 3.41872 9.16983 7.62113 9.16983C7.97033 9.16983 8.3115 9.19762 8.64765 9.24075V10.1771V13.2774C8.32253 13.1806 7.97936 13.1241 7.62113 13.1241C5.70255 13.1241 4.1412 14.6153 4.1412 16.4487C4.1412 17.7252 4.8998 18.8341 6.0076 19.3909C6.49025 19.6334 7.03913 19.7723 7.62213 19.7723C9.49656 19.7723 11.0258 18.3482 11.096 16.5733L11.0991 0.726562H15.2393C15.2393 1.06966 15.2744 1.40413 15.3366 1.72998C15.6286 3.23654 16.5648 4.52939 17.8622 5.3373C18.7653 5.89986 19.843 6.22858 20.999 6.22858L21 10.1819Z" fill="#000F4A"/>
</svg>
