<svg width="32" height="36" viewBox="0 0 32 36" fill="none" xmlns="http://www.w3.org/2000/svg">
<path fill-rule="evenodd" clip-rule="evenodd" d="M22.9832 28.3624C22.2022 28.3624 21.4314 27.6575 21.4314 26.7528C21.4314 25.848 22.2022 25.1432 22.9832 25.1432C23.8555 25.1432 24.6263 25.848 24.6263 26.7528C24.6263 27.6575 23.8555 28.3624 22.9832 28.3624ZM7.65769 19.9147C7.36355 19.9147 7.17084 19.7148 7.17084 19.4097V9.04734C7.17084 8.84746 7.36355 8.54237 7.65769 8.54237H24.4336C24.7277 8.54237 24.9204 8.74226 24.9204 9.04734V19.4097C24.9204 19.7043 24.7277 19.9147 24.4336 19.9147H7.65769ZM9.11823 28.3624C8.24596 28.3624 7.5664 27.6575 7.5664 26.7528C7.5664 25.848 8.24596 25.1432 9.11823 25.1432C9.99049 25.1432 10.67 25.848 10.67 26.7528C10.6599 27.6575 9.99049 28.3624 9.11823 28.3624ZM14.8285 1.3045H17.2526V4.32379H14.8285V1.3045ZM9.79778 30.8662L10.5686 30.0666H21.4314L22.2022 30.8662H9.79778ZM24.6263 30.0666H26.4621C27.0504 30.0666 27.5271 29.5617 27.5271 28.962V8.54237C27.5271 7.03799 26.3607 5.82817 24.9103 5.82817H19.2811V4.32379H18.5103V1.3045H21.3198V0H10.7613V1.3045H13.5708V4.32379H12.6986V5.83869H7.17084C5.72044 5.83869 4.55404 7.04851 4.55404 8.55289V28.9725C4.55404 29.5722 4.93946 30.0771 5.61902 30.0771H7.36355L0 36H4.74675L7.65769 33.0859H24.4336L27.3445 36H32L24.6263 30.0666Z" fill="#CAA541"/>
</svg>
