<svg width="18" height="20" viewBox="0 0 18 20" fill="none" xmlns="http://www.w3.org/2000/svg">
<path fill-rule="evenodd" clip-rule="evenodd" d="M12.9281 15.7569C12.4887 15.7569 12.0552 15.3653 12.0552 14.8627C12.0552 14.36 12.4887 13.9684 12.9281 13.9684C13.4187 13.9684 13.8523 14.36 13.8523 14.8627C13.8523 15.3653 13.4187 15.7569 12.9281 15.7569ZM4.30745 11.0637C4.142 11.0637 4.0336 10.9527 4.0336 10.7832V5.0263C4.0336 4.91525 4.142 4.74576 4.30745 4.74576H13.7439C13.9094 4.74576 14.0177 4.85681 14.0177 5.0263V10.7832C14.0177 10.9468 13.9094 11.0637 13.7439 11.0637H4.30745ZM5.129 15.7569C4.63835 15.7569 4.2561 15.3653 4.2561 14.8627C4.2561 14.36 4.63835 13.9684 5.129 13.9684C5.61965 13.9684 6.0019 14.36 6.0019 14.8627C5.9962 15.3653 5.61965 15.7569 5.129 15.7569ZM8.34105 0.724722H9.7046V2.4021H8.34105V0.724722ZM5.51125 17.1479L5.94485 16.7037H12.0552L12.4887 17.1479H5.51125ZM13.8523 16.7037H14.8849C15.2158 16.7037 15.484 16.4231 15.484 16.09V4.74576C15.484 3.90999 14.8279 3.23787 14.012 3.23787H10.8456V2.4021H10.412V0.724722H11.9924V0H6.05325V0.724722H7.6336V2.4021H7.14295V3.24372H4.0336C3.21775 3.24372 2.56165 3.91584 2.56165 4.75161V16.0958C2.56165 16.429 2.77845 16.7095 3.1607 16.7095H4.142L0 20H2.67005L4.30745 18.3811H13.7439L15.3813 20H18L13.8523 16.7037Z" fill="#28377A"/>
</svg>
