<svg width="23" height="23" viewBox="0 0 23 23" fill="none" xmlns="http://www.w3.org/2000/svg">
<path fill-rule="evenodd" clip-rule="evenodd" d="M19.5 3.31974C17.3537 1.18018 14.5003 0.000951761 11.4605 0C5.19655 0 0.0984267 5.07669 0.0955599 11.3183C0.0946043 13.3132 0.618273 15.2605 1.61305 16.9775L0 22.8423L6.0241 21.2681C7.68397 22.1703 9.55312 22.6453 11.4548 22.6462H11.4595C17.7225 22.6462 22.8216 17.5686 22.8245 11.3269C22.8264 8.30316 21.6453 5.45835 19.5 3.31974ZM11.4605 20.7341H11.4567C9.76144 20.7341 8.09966 20.2801 6.64906 19.4226L6.30409 19.2189L2.72919 20.1526L3.68383 16.6806L3.45927 16.3246C2.51323 14.8265 2.0144 13.0953 2.01536 11.3183C2.01727 6.13125 6.25535 1.91114 11.4653 1.91114C13.9881 1.91114 16.3599 2.89145 18.143 4.66934C19.9262 6.44818 20.9076 8.81141 20.9066 11.325C20.9037 16.514 16.6666 20.7341 11.4605 20.7341ZM16.6418 13.6882C16.3579 13.5464 14.9618 12.8621 14.7009 12.7679C14.441 12.6737 14.2518 12.6261 14.0616 12.9087C13.8715 13.1914 13.3287 13.8291 13.1624 14.0185C12.9971 14.2069 12.8308 14.2307 12.547 14.0889C12.2632 13.9471 11.3477 13.6492 10.2631 12.6851C9.41934 11.9351 8.84885 11.009 8.68353 10.7254C8.51821 10.4418 8.66633 10.2895 8.80776 10.1486C8.93581 10.022 9.09157 9.81837 9.23395 9.65276C9.37729 9.48906 9.42412 9.37104 9.51968 9.18164C9.61428 8.99319 9.56746 8.82759 9.49579 8.68577C9.42412 8.54491 8.85649 7.15249 8.62046 6.58619C8.39016 6.03417 8.15604 6.10935 7.98116 6.10079C7.81584 6.09222 7.62664 6.09127 7.43647 6.09127C7.24726 6.09127 6.93956 6.1617 6.67964 6.44533C6.41971 6.72895 5.68581 7.41327 5.68581 8.80474C5.68581 10.1972 6.70353 11.542 6.84496 11.7305C6.98638 11.9189 8.84694 14.7761 11.6956 16.001C12.3731 16.2922 12.9025 16.4664 13.3144 16.5968C13.9947 16.8119 14.614 16.7815 15.1032 16.7091C15.6489 16.6282 16.7832 16.0248 17.0202 15.3643C17.2572 14.7038 17.2572 14.1365 17.1855 14.0194C17.1148 13.9005 16.9256 13.83 16.6418 13.6882Z" fill="#000F4A"/>
</svg>
