<svg width="12" height="13" viewBox="0 0 12 13" fill="none" xmlns="http://www.w3.org/2000/svg">
<path d="M11.8799 4.1795L9.41994 0.578506C9.29777 0.399965 9.13216 0.253695 8.93789 0.152751C8.74363 0.0518073 8.52675 -0.000668866 8.30661 6.43611e-06H1.33333C0.979705 6.43611e-06 0.640569 0.13697 0.390522 0.380767C0.140475 0.624565 0 0.955225 0 1.30001V11.7C0 12.0448 0.140475 12.3754 0.390522 12.6192C0.640569 12.863 0.979705 13 1.33333 13H6.66663C7.02024 13 7.35938 12.863 7.60943 12.6192C7.85947 12.3754 7.99995 12.0448 7.99995 11.7V11.05C7.99984 10.2679 8.28898 9.51205 8.81431 8.92104C9.33965 8.33004 10.0659 7.94356 10.8599 7.8325C11.1791 7.78692 11.4705 7.63007 11.6801 7.39104C11.8897 7.152 12.0033 6.84698 11.9999 6.5325V4.55C11.9996 4.41746 11.9577 4.28819 11.8799 4.1795ZM1.33333 4.55V1.30001H8.30661L10.5333 4.55H1.33333Z" fill="#000F4A"/>
</svg>
